<svg width="22" height="22" viewBox="0 0 22 22" fill="none" xmlns="http://www.w3.org/2000/svg">
<path d="M9.35 16H8.85V16.5C8.85 17.6891 9.81086 18.65 11 18.65C12.1891 18.65 13.15 17.6891 13.15 16.5V16H12.65H9.35ZM16.5 15.9H17V15.4V14.3V14.0929L16.8536 13.9464L15.9 12.9929V10.329C15.9 7.99094 14.8064 5.84308 12.6 5.12185V4.95C12.6 4.04686 11.9031 3.35 11 3.35C10.0969 3.35 9.4 4.04686 9.4 4.95V5.12176C7.19403 5.84184 6.1 7.97989 6.1 10.329V12.9929L5.14645 13.9464L5 14.0929V14.3V15.4V15.9H5.5H16.5ZM0.5 11C0.5 5.20414 5.20414 0.5 11 0.5C16.7959 0.5 21.5 5.20414 21.5 11C21.5 16.7959 16.7959 21.5 11 21.5C5.20414 21.5 0.5 16.7959 0.5 11Z" fill="#34A136" stroke="black"/>
</svg>
