<svg width="25" height="25" viewBox="0 0 25 25" fill="none" xmlns="http://www.w3.org/2000/svg">
<path d="M14.5833 11.4583H13.5416V10.4167C13.5416 10.1404 13.4319 9.87544 13.2365 9.68009C13.0412 9.48474 12.7762 9.37499 12.5 9.37499C12.2237 9.37499 11.9587 9.48474 11.7634 9.68009C11.568 9.87544 11.4583 10.1404 11.4583 10.4167V11.4583H10.4166C10.1404 11.4583 9.87541 11.5681 9.68006 11.7634C9.48471 11.9588 9.37496 12.2237 9.37496 12.5C9.37496 12.7763 9.48471 13.0412 9.68006 13.2366C9.87541 13.4319 10.1404 13.5417 10.4166 13.5417H11.4583V14.5833C11.4583 14.8596 11.568 15.1245 11.7634 15.3199C11.9587 15.5152 12.2237 15.625 12.5 15.625C12.7762 15.625 13.0412 15.5152 13.2365 15.3199C13.4319 15.1245 13.5416 14.8596 13.5416 14.5833V13.5417H14.5833C14.8596 13.5417 15.1245 13.4319 15.3199 13.2366C15.5152 13.0412 15.625 12.7763 15.625 12.5C15.625 12.2237 15.5152 11.9588 15.3199 11.7634C15.1245 11.5681 14.8596 11.4583 14.5833 11.4583ZM21 5.20832C19.8892 4.10906 18.4222 3.44298 16.8635 3.33028C15.3049 3.21759 13.7573 3.66569 12.5 4.59374C11.1746 3.60794 9.52495 3.16094 7.88321 3.34274C6.24147 3.52453 4.72959 4.32163 3.65202 5.57351C2.57445 6.8254 2.01123 8.43907 2.0758 10.0896C2.14036 11.7401 2.8279 13.3049 3.99996 14.4687L10.25 20.7708C10.8359 21.356 11.6302 21.6847 12.4583 21.6847C13.2864 21.6847 14.0807 21.356 14.6666 20.7708L20.9166 14.4687C21.5322 13.8673 22.0228 13.1502 22.3603 12.3586C22.6978 11.5669 22.8756 10.7164 22.8833 9.85585C22.8911 8.99531 22.7287 8.14172 22.4054 7.34413C22.0822 6.54655 21.6046 5.82071 21 5.20832V5.20832ZM19.5312 12.9792L13.2812 19.2292C13.1844 19.3268 13.0692 19.4043 12.9422 19.4572C12.8153 19.5101 12.6791 19.5373 12.5416 19.5373C12.4041 19.5373 12.268 19.5101 12.141 19.4572C12.0141 19.4043 11.8989 19.3268 11.802 19.2292L5.55204 12.9792C4.73513 12.1441 4.27768 11.0223 4.27768 9.85416C4.27768 8.68596 4.73513 7.56421 5.55204 6.72916C6.3845 5.90727 7.50722 5.44641 8.67704 5.44641C9.84686 5.44641 10.9696 5.90727 11.802 6.72916C11.8989 6.82679 12.0141 6.90428 12.141 6.95717C12.268 7.01005 12.4041 7.03728 12.5416 7.03728C12.6791 7.03728 12.8153 7.01005 12.9422 6.95717C13.0692 6.90428 13.1844 6.82679 13.2812 6.72916C14.1137 5.90727 15.2364 5.44641 16.4062 5.44641C17.576 5.44641 18.6988 5.90727 19.5312 6.72916C20.3544 7.56514 20.8158 8.69133 20.8158 9.86457C20.8158 11.0378 20.3544 12.164 19.5312 13V12.9792Z" fill="#34A136"/>
</svg>
