<svg width="29" height="23" viewBox="0 0 29 23" fill="none" xmlns="http://www.w3.org/2000/svg">
<path d="M14.4811 3.4385C15.3375 3.4385 16.1588 3.70832 16.7644 4.18861C17.37 4.6689 17.7102 5.32031 17.7102 5.99955C17.7102 6.67878 17.37 7.33019 16.7644 7.81048C16.1588 8.29077 15.3375 8.5606 14.4811 8.5606C13.6244 8.5606 12.8029 8.29071 12.1972 7.81031C11.5915 7.32992 11.2512 6.67836 11.2512 5.99897C11.2512 5.31959 11.5915 4.66803 12.1972 4.18763C12.8029 3.70723 13.6244 3.43735 14.4811 3.43735V3.4385ZM14.4811 4.5885C14.0092 4.5885 13.5567 4.73716 13.223 5.00178C12.8893 5.26641 12.7019 5.62531 12.7019 5.99955C12.7019 6.37378 12.8893 6.73269 13.223 6.99731C13.5567 7.26193 14.0092 7.4106 14.4811 7.4106C14.9531 7.4106 15.4058 7.26187 15.7396 6.99714C16.0734 6.73241 16.2609 6.37336 16.2609 5.99897C16.2609 5.62459 16.0734 5.26553 15.7396 5.0008C15.4058 4.73607 14.9531 4.58735 14.4811 4.58735V4.5885ZM4.3731 13.225C4.3731 13.3775 4.29672 13.5237 4.16075 13.6316C4.02479 13.7394 3.84038 13.8 3.6481 13.8C3.45582 13.8 3.27141 13.7394 3.13545 13.6316C2.99949 13.5237 2.9231 13.3775 2.9231 13.225V10.3661C2.92315 10.0844 3.05354 9.81256 3.28954 9.60207C3.52554 9.39158 3.85074 9.2571 4.20345 9.22415L4.3731 9.2161H8.37075C8.15977 9.50483 8.03109 9.8267 7.99375 10.1591L7.98215 10.3661H4.37165V13.225H4.3731ZM25.3604 13.8C25.5527 13.8 25.7371 13.7394 25.8731 13.6316C26.009 13.5237 26.0854 13.3775 26.0854 13.225V10.3661L26.0753 10.2327C26.034 9.95275 25.8646 9.69456 25.5992 9.50715C25.3337 9.31974 24.9908 9.21617 24.6354 9.2161H20.5986C20.8103 9.50705 20.9466 9.84055 20.9785 10.1947L20.9858 10.3672H24.6354V13.225C24.6354 13.3775 24.7118 13.5237 24.8477 13.6316C24.9837 13.7394 25.1681 13.8 25.3604 13.8V13.8ZM18.0872 9.2161C18.4426 9.21617 18.7855 9.31974 19.051 9.50715C19.3164 9.69456 19.4858 9.95275 19.5271 10.2327L19.5358 10.3661V13.225C19.5358 13.3775 19.4594 13.5237 19.3234 13.6316C19.1874 13.7394 19.003 13.8 18.8108 13.8C18.6185 13.8 18.4341 13.7394 18.2981 13.6316C18.1621 13.5237 18.0858 13.3775 18.0858 13.225V10.3661H10.8822V13.225C10.8822 13.3775 10.8058 13.5237 10.6698 13.6316C10.5338 13.7394 10.3494 13.8 10.1572 13.8C9.96487 13.8 9.78046 13.7394 9.6445 13.6316C9.50854 13.5237 9.43215 13.3775 9.43215 13.225V10.3661C9.4322 10.0844 9.56259 9.81256 9.79859 9.60207C10.0346 9.39158 10.3598 9.2571 10.7125 9.22415L10.8822 9.2161H18.0858H18.0872ZM24.4875 6.36065C24.4875 5.77703 24.1952 5.21732 23.6748 4.80464C23.1545 4.39196 22.4488 4.16012 21.7129 4.16012C20.9771 4.16012 20.2713 4.39196 19.751 4.80464C19.2307 5.21732 18.9384 5.77703 18.9384 6.36065C18.9384 6.94426 19.2307 7.50397 19.751 7.91665C20.2713 8.32933 20.9771 8.56117 21.7129 8.56117C22.4488 8.56117 23.1545 8.32933 23.6748 7.91665C24.1952 7.50397 24.4875 6.94426 24.4875 6.36065V6.36065ZM20.3884 6.36065C20.3884 6.08203 20.5279 5.81483 20.7763 5.61781C21.0247 5.4208 21.3616 5.31012 21.7129 5.31012C22.0642 5.31012 22.4011 5.4208 22.6495 5.61781C22.898 5.81483 23.0375 6.08203 23.0375 6.36065C23.0375 6.63926 22.898 6.90647 22.6495 7.10348C22.4011 7.30049 22.0642 7.41117 21.7129 7.41117C21.3616 7.41117 21.0247 7.30049 20.7763 7.10348C20.5279 6.90647 20.3884 6.63926 20.3884 6.36065ZM7.2731 4.15955C8.00897 4.15955 8.71469 4.39139 9.23502 4.80407C9.75536 5.21674 10.0477 5.77646 10.0477 6.36007C10.0477 6.94369 9.75536 7.5034 9.23502 7.91608C8.71469 8.32876 8.00897 8.5606 7.2731 8.5606C6.53724 8.5606 5.83152 8.32876 5.31118 7.91608C4.79085 7.5034 4.49853 6.94369 4.49853 6.36007C4.49853 5.77646 4.79085 5.21674 5.31118 4.80407C5.83152 4.39139 6.53724 4.15955 7.2731 4.15955V4.15955ZM7.2731 5.30955C6.9218 5.30955 6.58489 5.42023 6.33649 5.61724C6.08808 5.81425 5.94853 6.08146 5.94853 6.36007C5.94853 6.63869 6.08808 6.90589 6.33649 7.10291C6.58489 7.29992 6.9218 7.4106 7.2731 7.4106C7.6244 7.4106 7.96131 7.29992 8.20972 7.10291C8.45812 6.90589 8.59768 6.63869 8.59768 6.36007C8.59768 6.08146 8.45812 5.81425 8.20972 5.61724C7.96131 5.42023 7.6244 5.30955 7.2731 5.30955V5.30955ZM3.6249 14.95C3.43262 14.95 3.24821 15.0106 3.11225 15.1184C2.97629 15.2262 2.8999 15.3725 2.8999 15.525V16.675C2.8999 17.4375 3.28182 18.1688 3.96164 18.7079C4.64146 19.2471 5.56349 19.55 6.5249 19.55H22.4749C23.4363 19.55 24.3583 19.2471 25.0382 18.7079C25.718 18.1688 26.0999 17.4375 26.0999 16.675V15.525C26.0999 15.3725 26.0235 15.2262 25.8876 15.1184C25.7516 15.0106 25.5672 14.95 25.3749 14.95H3.6249ZM4.3499 16.675V16.1H24.6499V16.675C24.6499 17.1325 24.4208 17.5713 24.0129 17.8948C23.605 18.2183 23.0517 18.4 22.4749 18.4H6.5249C5.94806 18.4 5.39484 18.2183 4.98695 17.8948C4.57905 17.5713 4.3499 17.1325 4.3499 16.675Z" fill="#34A136"/>
</svg>
